<svg width="1700" height="177" viewBox="0 0 1700 177" fill="none" xmlns="http://www.w3.org/2000/svg">
<path fill-rule="evenodd" clip-rule="evenodd" d="M27.7345 150.997C10.675 135.073 0 112.377 0 87.204C0 39.0745 39.0206 0 87.0825 0C135.145 0 174.165 39.0745 174.165 87.204C174.165 127.258 147.14 161.041 110.369 171.25C102.208 159.242 94.8111 148.303 100.341 130.299C93.5939 133.748 89.3526 140.532 88.0692 147.906C85.5582 143.954 82.7709 140.143 79.5415 136.748C71.322 128.104 60.1149 122.06 54.9292 110.836C52.56 105.534 50.9365 97.9551 52.8132 92.4695C54.1675 103.117 59.3399 112.913 68.604 118.586C75.6664 122.909 83.5793 123.621 91.5005 125.294C99.7575 127.036 112.872 130.965 120.917 129.546C127.605 128.368 141.639 120.971 141.264 112.948C141.133 110.188 137.768 105.536 136.524 102.873C134.868 99.3267 135.851 98.5609 136.04 95.0035C136.573 84.9349 133.917 79.9605 129.034 71.6693C123.111 61.612 116.61 55.535 105.352 51.4529C95.0627 47.7211 79.2282 49.8333 79.1075 50.0046C81.1876 52.2881 83.1017 54.96 83.3698 58.1224C79.1527 54.2163 75.0727 50.0643 70.3503 46.7526C59.9048 39.4299 53.3622 40.1201 49.2093 52.857C47.045 59.4931 45.4087 68.5115 47.4148 75.2993C48.6315 79.4107 51.1573 82.7562 54.0334 85.8416C48.4055 85.0737 44.9937 80.1785 43.7529 74.8724C29.8032 105.088 26.6975 119.698 27.7345 150.997ZM131.216 122.063C129.05 122.13 127.05 120.976 125.417 119.655C124.496 118.873 123.145 117.861 122.956 116.69C122.581 114.357 124.436 112.689 125.541 111.998C126.489 111.406 127.641 111.077 128.729 110.825C131.209 110.251 133.784 109.719 136.282 110.205C137.029 110.351 137.772 110.593 138.387 111.043C139.002 111.49 139.479 112.167 139.562 112.926C139.623 113.488 139.469 114.049 139.284 114.582C138.852 115.808 138.255 116.97 137.51 118.036C136.773 119.098 135.89 120.072 134.827 120.806C133.763 121.54 132.507 122.025 131.216 122.063ZM94.2086 87.8052C102.774 86.6434 103.818 99.9249 95.5548 100.482C87.2916 101.04 86.3604 88.8703 94.2086 87.8052ZM65.352 61.4372C66.1429 63.3252 67.7725 64.5827 69.1803 65.9677C65.9847 66.9387 62.7599 66.0114 59.9546 64.4016C60.121 67.3687 62.3146 69.9855 63.9576 72.07C61.2494 72.6923 58.8556 71.7629 56.9964 69.8044C56.9691 72.5616 57.9069 74.9666 59.2577 77.2984C53.9754 79.9296 51.6951 74.3957 51.4254 70.0647C51.1301 65.3048 53.0535 53.2952 56.4638 49.8349C60.2792 45.9627 66.2056 50.4732 69.4366 53.0735C72.2885 55.3673 75.0322 58.1389 77.616 60.7228C74.2238 62.9677 69.1705 62.8741 65.352 61.4372ZM131.737 96.1123C129.87 92.8609 129.299 91.9151 128.213 89.5606C127.473 87.9569 127.099 86.055 129.778 85.9984C134.638 85.8951 136.321 93.6025 132.536 96.2918C132.443 96.3571 132.332 96.3921 132.219 96.3921C132.02 96.3921 131.836 96.2851 131.737 96.1123ZM128.545 65.0836C129.923 46.1046 129.762 33.8219 112.185 51.0502C118.819 54.1402 124.399 59.0698 128.545 65.0836Z" fill="white"/>
<path fill-rule="evenodd" clip-rule="evenodd" d="M264.954 144.309C257.756 144.309 250.804 143.587 244.102 142.146C237.402 140.702 231.172 138.539 225.41 135.657C219.651 132.772 214.666 129.112 210.456 124.676L229.065 100.55C232.169 104.321 235.824 107.482 240.031 110.034C244.241 112.583 248.644 114.497 253.24 115.775C257.839 117.049 262.295 117.688 266.615 117.688C269.164 117.688 271.38 117.465 273.261 117.022C275.145 116.577 276.584 115.884 277.581 114.943C278.578 113.998 279.077 112.75 279.077 111.199C279.077 109.312 278.412 107.705 277.083 106.374C275.753 105.043 273.594 103.848 270.603 102.797C267.612 101.742 263.624 100.77 258.64 99.8849L247.508 97.722C242.746 96.8335 238.26 95.5857 234.05 93.9784C229.843 92.3678 226.104 90.2613 222.834 87.6558C219.568 85.0469 217.019 81.859 215.191 78.0887C213.364 74.3152 212.45 69.7697 212.45 64.4454C212.45 56.9016 214.417 50.5523 218.348 45.3944C222.283 40.2365 227.6 36.3531 234.299 33.7476C241.001 31.1387 248.452 29.8376 256.646 29.8376C267.502 29.8376 277.166 31.5546 285.639 34.9954C294.113 38.4329 301.121 42.9252 306.658 48.4724L288.215 72.2653C283.785 67.6066 278.329 63.8064 271.849 60.8681C265.369 57.9265 259.138 56.4589 253.157 56.4589C251.276 56.4589 249.558 56.6786 248.006 57.1245C246.458 57.5671 245.265 58.2325 244.434 59.121C243.603 60.0062 243.188 61.1176 243.188 62.4487C243.188 65.5534 244.74 67.8261 247.84 69.2703C250.944 70.7112 255.207 72.0423 260.634 73.2636L273.76 76.2586C279.854 77.5896 285.141 79.2535 289.627 81.2501C294.113 83.2467 297.852 85.6291 300.842 88.4044C303.833 91.1764 306.076 94.3642 307.571 97.9714C309.067 101.575 309.814 105.708 309.814 110.367C309.814 117.908 307.851 124.203 303.916 129.252C299.985 134.296 294.642 138.07 287.882 140.566C281.127 143.061 273.484 144.309 264.954 144.309Z" fill="white"/>
<path fill-rule="evenodd" clip-rule="evenodd" d="M376.42 134.377C374.609 136.273 371.681 138.363 367.634 140.649C363.314 143.089 357.831 144.31 351.185 144.31C344.097 144.31 338.421 143.062 334.155 140.566C329.891 138.071 326.817 134.713 324.933 130.5C323.052 126.284 322.109 121.515 322.109 116.191V83.0808H310.478V60.4527H322.109V51.1353L352.016 37.8246V60.4527H371.954V83.0808H352.016V111.865C352.016 113.972 352.544 115.579 353.594 116.69C354.648 117.798 356.116 118.354 357.997 118.354C359.881 118.354 361.792 117.742 363.73 116.524C365.348 115.506 366.75 114.181 367.943 112.544C368.565 118.477 370.216 123.935 372.898 128.919C373.941 130.863 375.118 132.683 376.42 134.377Z" fill="white"/>
<path fill-rule="evenodd" clip-rule="evenodd" d="M417.479 144.312C408.73 144.312 401.17 142.451 394.8 138.738C388.433 135.021 383.501 129.92 380.012 123.431C376.523 116.942 374.779 109.647 374.779 101.551C374.779 93.3418 376.523 86.0211 380.012 79.5887C383.501 73.153 388.433 68.0782 394.8 64.3646C401.17 60.6476 408.73 58.7908 417.479 58.7908C426.674 58.7908 434.566 60.6476 441.156 64.3646C447.749 68.0782 452.787 73.153 456.276 79.5887C459.765 86.0211 461.51 93.3418 461.51 101.551C461.51 109.647 459.765 116.942 456.276 123.431C452.787 129.92 447.749 135.021 441.156 138.738C434.566 142.451 426.674 144.312 417.479 144.312ZM418.144 120.353C420.693 120.353 422.936 119.77 424.873 118.605C426.814 117.441 428.336 115.497 429.442 112.782C430.552 110.063 431.104 106.32 431.104 101.551C431.104 96.7793 430.552 93.0357 429.442 90.3203C428.336 87.6016 426.814 85.6616 424.873 84.4969C422.936 83.3322 420.693 82.75 418.144 82.75C415.599 82.75 413.356 83.3322 411.415 84.4969C409.478 85.6616 407.956 87.6016 406.846 90.3203C405.739 93.0357 405.184 96.7793 405.184 101.551C405.184 106.32 405.739 110.063 406.846 112.782C407.956 115.497 409.478 117.441 411.415 118.605C413.356 119.77 415.599 120.353 418.144 120.353Z" fill="white"/>
<path fill-rule="evenodd" clip-rule="evenodd" d="M512.904 89.3531C512.638 87.9754 512.279 86.8374 511.828 85.9389C510.721 83.7193 507.787 82.6112 503.022 82.6112C498.26 82.6112 493.441 83.7759 488.566 86.1052C483.695 88.4346 479.541 91.5393 476.105 95.4227L462.813 73.4602C466.249 70.3521 470.124 67.6069 474.444 65.2243C478.763 62.8383 483.472 60.9515 488.566 59.5672C493.664 58.1796 499.034 57.4874 504.683 57.4874C515.207 57.4874 523.515 60.0929 529.606 65.3073C535.7 70.5185 538.744 78.3952 538.744 88.9339V113.725C538.744 115.498 539.05 116.746 539.658 117.468C540.269 118.187 541.293 118.55 542.732 118.55H547.55V141.345H530.603C527.502 141.345 524.538 140.845 521.714 139.847C518.889 138.849 516.593 137.211 514.818 134.939C513.798 133.624 513.07 132.044 512.635 130.197C511.475 131.894 510.053 133.518 508.468 135.005C502.819 140.32 494.565 143.058 486.5 143.175C480.538 143.261 475.487 141.564 471.347 138.35C467.209 135.132 465.139 129.808 465.139 122.377C465.139 115.722 467.163 110.367 471.204 106.321C475.248 102.271 481.811 98.8602 490.893 96.0882L512.904 89.3531ZM512.16 112.713V107.615L498.702 112.394C495.934 113.392 494.079 114.334 493.136 115.222C492.195 116.107 491.723 117.106 491.723 118.217C491.723 119.548 492.255 120.573 493.315 121.295C494.378 122.014 495.967 122.377 498.09 122.377C500.546 122.377 502.666 122.127 504.454 121.628C506.242 121.129 507.72 120.38 508.893 119.382C510.066 118.384 510.93 117.106 511.489 115.555C511.798 114.693 512.024 113.745 512.16 112.713Z" fill="white"/>
<path fill-rule="evenodd" clip-rule="evenodd" d="M556.829 83.0808H545.198V60.4527H556.829V51.1353L586.736 37.8246V60.4527H606.674V83.0808H586.736V111.865C586.736 113.972 587.264 115.579 588.315 116.69C589.368 117.798 590.837 118.354 592.718 118.354C594.602 118.354 596.513 117.742 598.45 116.524C600.39 115.303 602.022 113.639 603.351 111.532L611.493 133.994C609.721 135.991 606.674 138.207 602.354 140.649C598.034 143.089 592.551 144.31 585.905 144.31C578.817 144.31 573.142 143.062 568.875 140.566C564.611 138.071 561.538 134.713 559.653 130.5C557.773 126.284 556.829 121.515 556.829 116.191V83.0808Z" fill="white"/>
<path d="M671.989 52.2277C671.989 43.412 673.825 36.9052 677.498 32.7072C681.277 28.4043 686.996 26.2529 694.658 26.2529C696.442 26.2529 697.963 26.4103 699.223 26.7252C700.587 26.9351 701.637 27.1974 702.371 27.5123V37.4299H700.954C694.867 37.4299 690.827 38.6368 688.833 41.0506C686.839 43.4645 685.842 47.1901 685.842 52.2277V141.486H671.989V52.2277ZM660.339 68.9145V57.8949H702.371V68.9145H660.339ZM747.467 143.375C739.491 143.375 732.616 141.644 726.844 138.18C721.177 134.717 716.822 129.732 713.778 123.225C710.735 116.614 709.213 108.795 709.213 99.7693C709.213 90.3239 710.735 82.3479 713.778 75.8411C716.927 69.3343 721.387 64.4017 727.159 61.0433C732.931 57.58 739.7 55.8484 747.467 55.8484C755.443 55.8484 762.264 57.6325 767.932 61.2007C773.704 64.664 778.112 69.7016 781.155 76.3133C784.199 82.8201 785.72 90.6388 785.72 99.7693C785.72 109.11 784.146 117.033 780.998 123.54C777.954 130.047 773.546 134.98 767.774 138.338C762.107 141.696 755.338 143.375 747.467 143.375ZM747.467 131.411C755.233 131.411 761.162 128.683 765.255 123.225C769.453 117.768 771.552 109.949 771.552 99.7693C771.552 89.5893 769.453 81.7182 765.255 76.1559C761.162 70.5936 755.233 67.8125 747.467 67.8125C739.7 67.8125 733.718 70.5936 729.52 76.1559C725.427 81.6132 723.381 89.4844 723.381 99.7693C723.381 109.844 725.48 117.663 729.678 123.225C733.876 128.683 739.805 131.411 747.467 131.411ZM803.551 141.486V57.8949H817.404V141.486H803.551ZM817.404 94.7318H811.107C811.737 85.7062 813.469 78.3598 816.302 72.6926C819.241 66.9204 822.914 62.67 827.322 59.9414C831.835 57.2127 836.767 55.8484 842.12 55.8484C843.799 55.8484 845.32 56.0583 846.685 56.4781C848.154 56.7929 849.256 57.2652 849.991 57.8949V70.3313C848.836 69.9115 847.524 69.6491 846.055 69.5442C844.586 69.3343 843.012 69.2293 841.332 69.2293C837.134 69.2293 833.514 69.859 830.47 71.1184C827.532 72.2728 825.065 74.0045 823.071 76.3133C821.182 78.6222 819.766 81.3509 818.821 84.4993C817.876 87.5428 817.404 90.9536 817.404 94.7318ZM895.052 141.486V34.4389H909.535V141.486H895.052ZM930 129.68C938.186 129.68 945.217 128.053 951.094 124.8C956.971 121.441 961.432 116.666 964.475 110.474C967.624 104.282 969.198 96.8308 969.198 88.12C969.198 79.3044 967.624 71.8005 964.475 65.6086C961.432 59.3117 956.971 54.5365 951.094 51.2831C945.217 47.9248 938.186 46.2456 930 46.2456H905.442V34.4389H930C941.124 34.4389 950.674 36.5903 958.65 40.8932C966.731 45.1961 972.976 51.3356 977.384 59.3117C981.792 67.2878 983.996 76.8905 983.996 88.12C983.996 99.2446 981.792 108.795 977.384 116.771C972.976 124.747 966.731 130.887 958.65 135.189C950.674 139.387 941.124 141.486 930 141.486H905.442V129.68H930ZM1069.05 91.7408L1061.17 99.1396C1061.17 89.1695 1059.08 81.4558 1054.88 75.9985C1050.78 70.5412 1044.96 67.8125 1037.4 67.8125C1029.64 67.8125 1023.71 70.5936 1019.61 76.1559C1015.52 81.6132 1013.48 89.4844 1013.48 99.7693C1013.48 109.844 1015.63 117.663 1019.93 123.225C1024.23 128.683 1030.32 131.411 1038.19 131.411C1044.07 131.411 1049 129.994 1052.99 127.161C1057.08 124.327 1059.86 120.024 1061.33 114.252H1075.81C1073.51 124.012 1068.99 131.306 1062.28 136.134C1055.66 140.962 1047.64 143.375 1038.19 143.375C1030.11 143.375 1023.13 141.644 1017.25 138.18C1011.48 134.717 1007.02 129.732 1003.87 123.225C1000.83 116.614 999.307 108.795 999.307 99.7693C999.307 90.3239 1000.83 82.3479 1003.87 75.8411C1007.02 69.3343 1011.43 64.4017 1017.1 61.0433C1022.87 57.58 1029.64 55.8484 1037.4 55.8484C1045.27 55.8484 1051.99 57.58 1057.55 61.0433C1063.22 64.5066 1067.58 69.4392 1070.62 75.8411C1073.66 82.138 1075.19 89.7467 1075.19 98.6674V102.131H1005.13V91.7408H1069.05ZM1113.05 141.486L1081.88 57.8949H1096.83L1119.97 122.753L1123.12 133.615H1121.07L1124.06 122.753L1147.21 57.8949H1161.22L1130.05 141.486H1113.05ZM1238.46 91.7408L1230.59 99.1396C1230.59 89.1695 1228.49 81.4558 1224.29 75.9985C1220.2 70.5412 1214.37 67.8125 1206.82 67.8125C1199.05 67.8125 1193.12 70.5936 1189.03 76.1559C1184.94 81.6132 1182.89 89.4844 1182.89 99.7693C1182.89 109.844 1185.04 117.663 1189.34 123.225C1193.65 128.683 1199.73 131.411 1207.6 131.411C1213.48 131.411 1218.41 129.994 1222.4 127.161C1226.5 124.327 1229.28 120.024 1230.75 114.252H1245.23C1242.92 124.012 1238.41 131.306 1231.69 136.134C1225.08 140.962 1217.05 143.375 1207.6 143.375C1199.52 143.375 1192.54 141.644 1186.67 138.18C1180.9 134.717 1176.43 129.732 1173.29 123.225C1170.24 116.614 1168.72 108.795 1168.72 99.7693C1168.72 90.3239 1170.24 82.3479 1173.29 75.8411C1176.43 69.3343 1180.84 64.4017 1186.51 61.0433C1192.28 57.58 1199.05 55.8484 1206.82 55.8484C1214.69 55.8484 1221.41 57.58 1226.97 61.0433C1232.63 64.5066 1236.99 69.4392 1240.03 75.8411C1243.08 82.138 1244.6 89.7467 1244.6 98.6674V102.131H1174.55V91.7408H1238.46ZM1263.06 141.486V28.142H1276.91V141.486H1263.06ZM1332.88 143.375C1324.91 143.375 1318.03 141.644 1312.26 138.18C1306.59 134.717 1302.24 129.732 1299.19 123.225C1296.15 116.614 1294.63 108.795 1294.63 99.7693C1294.63 90.3239 1296.15 82.3479 1299.19 75.8411C1302.34 69.3343 1306.8 64.4017 1312.57 61.0433C1318.35 57.58 1325.12 55.8484 1332.88 55.8484C1340.86 55.8484 1347.68 57.6325 1353.35 61.2007C1359.12 64.664 1363.53 69.7016 1366.57 76.3133C1369.61 82.8201 1371.14 90.6388 1371.14 99.7693C1371.14 109.11 1369.56 117.033 1366.41 123.54C1363.37 130.047 1358.96 134.98 1353.19 138.338C1347.52 141.696 1340.75 143.375 1332.88 143.375ZM1332.88 131.411C1340.65 131.411 1346.58 128.683 1350.67 123.225C1354.87 117.768 1356.97 109.949 1356.97 99.7693C1356.97 89.5893 1354.87 81.7182 1350.67 76.1559C1346.58 70.5936 1340.65 67.8125 1332.88 67.8125C1325.12 67.8125 1319.13 70.5936 1314.94 76.1559C1310.84 81.6132 1308.8 89.4844 1308.8 99.7693C1308.8 109.844 1310.9 117.663 1315.09 123.225C1319.29 128.683 1325.22 131.411 1332.88 131.411ZM1426.43 55.8484C1433.88 55.8484 1440.23 57.58 1445.48 61.0433C1450.83 64.5066 1454.93 69.4917 1457.76 75.9985C1460.59 82.5053 1462.01 90.3239 1462.01 99.4545C1462.01 113.623 1458.81 124.485 1452.41 132.041C1446.01 139.597 1437.35 143.375 1426.43 143.375C1416.78 143.375 1409.06 139.65 1403.29 132.198C1397.62 124.642 1394.79 113.727 1394.79 99.4545C1394.79 90.6388 1396.05 82.9776 1398.57 76.4708C1401.19 69.9639 1404.87 64.9264 1409.59 61.3582C1414.42 57.685 1420.03 55.8484 1426.43 55.8484ZM1425.49 67.8125C1418.14 67.8125 1412.53 70.5412 1408.64 75.9985C1404.87 81.3509 1402.98 89.1695 1402.98 99.4545C1402.98 109.634 1404.92 117.506 1408.8 123.068C1412.79 128.63 1418.35 131.411 1425.49 131.411C1432.73 131.411 1438.24 128.683 1442.02 123.225C1445.9 117.663 1447.84 109.739 1447.84 99.4545C1447.84 89.3794 1445.9 81.6132 1442.02 76.1559C1438.13 70.5936 1432.63 67.8125 1425.49 67.8125ZM1402.98 176.119H1389.12V57.8949H1402.98V176.119ZM1545.31 91.7408L1537.44 99.1396C1537.44 89.1695 1535.34 81.4558 1531.14 75.9985C1527.05 70.5412 1521.23 67.8125 1513.67 67.8125C1505.9 67.8125 1499.97 70.5936 1495.88 76.1559C1491.79 81.6132 1489.74 89.4844 1489.74 99.7693C1489.74 109.844 1491.89 117.663 1496.19 123.225C1500.5 128.683 1506.58 131.411 1514.46 131.411C1520.33 131.411 1525.27 129.994 1529.25 127.161C1533.35 124.327 1536.13 120.024 1537.6 114.252H1552.08C1549.77 124.012 1545.26 131.306 1538.54 136.134C1531.93 140.962 1523.9 143.375 1514.46 143.375C1506.37 143.375 1499.4 141.644 1493.52 138.18C1487.75 134.717 1483.29 129.732 1480.14 123.225C1477.09 116.614 1475.57 108.795 1475.57 99.7693C1475.57 90.3239 1477.09 82.3479 1480.14 75.8411C1483.29 69.3343 1487.69 64.4017 1493.36 61.0433C1499.13 57.58 1505.9 55.8484 1513.67 55.8484C1521.54 55.8484 1528.26 57.58 1533.82 61.0433C1539.49 64.5066 1543.84 69.4392 1546.88 75.8411C1549.93 82.138 1551.45 89.7467 1551.45 98.6674V102.131H1481.4V91.7408H1545.31ZM1569.91 141.486V57.8949H1583.76V141.486H1569.91ZM1583.76 94.7318H1577.47C1578.1 85.7062 1579.83 78.3598 1582.66 72.6926C1585.6 66.9204 1589.27 62.67 1593.68 59.9414C1598.19 57.2127 1603.13 55.8484 1608.48 55.8484C1610.16 55.8484 1611.68 56.0583 1613.04 56.4781C1614.51 56.7929 1615.62 57.2652 1616.35 57.8949V70.3313C1615.2 69.9115 1613.88 69.6491 1612.41 69.5442C1610.95 69.3343 1609.37 69.2293 1607.69 69.2293C1603.49 69.2293 1599.87 69.859 1596.83 71.1184C1593.89 72.2728 1591.42 74.0045 1589.43 76.3133C1587.54 78.6222 1586.13 81.3509 1585.18 84.4993C1584.24 87.5428 1583.76 90.9536 1583.76 94.7318ZM1638.87 79.3044C1638.87 82.6627 1639.81 85.2339 1641.7 87.0181C1643.7 88.8022 1646.32 90.1665 1649.57 91.1111C1652.83 92.0556 1656.4 92.8427 1660.28 93.4724C1664.16 93.9971 1667.99 94.6793 1671.77 95.5189C1675.65 96.3585 1679.22 97.6179 1682.48 99.297C1685.73 100.871 1688.3 103.128 1690.19 106.066C1692.18 109.005 1693.18 112.94 1693.18 117.873C1693.18 123.015 1691.76 127.528 1688.93 131.411C1686.1 135.189 1682.16 138.128 1677.12 140.227C1672.09 142.326 1666.26 143.375 1659.65 143.375C1649.78 143.375 1641.55 141.014 1634.93 136.291C1628.43 131.464 1624.39 124.117 1622.81 114.252H1636.67C1637.61 120.024 1640.13 124.485 1644.22 127.633C1648.42 130.782 1653.72 132.356 1660.12 132.356C1666.42 132.356 1671.19 131.096 1674.45 128.578C1677.7 125.954 1679.33 122.701 1679.33 118.817C1679.33 115.564 1678.33 113.045 1676.34 111.261C1674.45 109.477 1671.88 108.165 1668.62 107.326C1665.47 106.381 1661.96 105.594 1658.07 104.964C1654.3 104.335 1650.52 103.6 1646.74 102.76C1642.96 101.921 1639.45 100.714 1636.19 99.1396C1633.04 97.4604 1630.47 95.1516 1628.48 92.213C1626.59 89.1695 1625.65 85.1815 1625.65 80.2489C1625.65 75.946 1626.75 71.958 1628.95 68.2848C1631.16 64.6116 1634.51 61.6205 1639.03 59.3117C1643.54 57.0028 1649.21 55.8484 1656.03 55.8484C1662.12 55.8484 1667.52 56.8454 1672.24 58.8394C1677.07 60.8334 1681.06 63.9819 1684.21 68.2848C1687.36 72.5877 1689.35 78.2024 1690.19 85.129H1676.34C1675.29 78.6222 1672.98 74.0045 1669.41 71.2758C1665.84 68.5471 1661.12 67.1828 1655.24 67.1828C1650.1 67.1828 1646.06 68.3372 1643.12 70.6461C1640.29 72.955 1638.87 75.8411 1638.87 79.3044Z" fill="white"/>
</svg>
