<svg width="1701" height="177" viewBox="0 0 1701 177" fill="none" xmlns="http://www.w3.org/2000/svg">
<path fill-rule="evenodd" clip-rule="evenodd" d="M265.97 145.088C258.773 145.088 251.821 144.366 245.118 142.925C238.419 141.481 232.188 139.318 226.426 136.436C220.667 133.551 215.683 129.89 211.473 125.455L230.082 101.329C233.185 105.099 236.841 108.261 241.048 110.813C245.258 113.362 249.661 115.275 254.257 116.553C258.856 117.828 263.312 118.467 267.632 118.467C270.18 118.467 272.397 118.244 274.278 117.801C276.162 117.355 277.601 116.663 278.598 115.721C279.595 114.776 280.093 113.528 280.093 111.978C280.093 110.091 279.428 108.484 278.099 107.152C276.77 105.821 274.61 104.627 271.619 103.575C268.629 102.52 264.641 101.549 259.657 100.663L248.524 98.5006C243.762 97.6121 239.276 96.3643 235.066 94.757C230.859 93.1464 227.121 91.0399 223.851 88.4344C220.584 85.8255 218.036 82.6376 216.208 78.8673C214.38 75.0938 213.466 70.5483 213.466 65.224C213.466 57.6802 215.434 51.3309 219.365 46.173C223.299 41.0151 228.616 37.1317 235.315 34.5262C242.018 31.9173 249.468 30.6162 257.663 30.6162C268.519 30.6162 278.182 32.3332 286.656 35.774C295.13 39.2115 302.138 43.7038 307.674 49.251L289.231 73.0439C284.802 68.3852 279.345 64.585 272.866 61.6467C266.386 58.7051 260.155 57.2375 254.174 57.2375C252.293 57.2375 250.575 57.4572 249.023 57.9031C247.474 58.3457 246.281 59.0111 245.451 59.8996C244.62 60.7848 244.204 61.8962 244.204 63.2273C244.204 66.332 245.756 68.6047 248.857 70.0489C251.96 71.4898 256.224 72.8209 261.65 74.0422L274.776 77.0372C280.871 78.3682 286.158 80.0321 290.644 82.0287C295.13 84.0253 298.868 86.4077 301.859 89.183C304.85 91.955 307.093 95.1429 308.588 98.75C310.083 102.354 310.831 106.487 310.831 111.146C310.831 118.686 308.867 124.982 304.933 130.03C301.002 135.075 295.658 138.849 288.899 141.344C282.143 143.84 274.5 145.088 265.97 145.088Z" fill="#2A233A"/>
<path fill-rule="evenodd" clip-rule="evenodd" d="M377.437 135.155C375.626 137.052 372.698 139.142 368.651 141.428C364.331 143.867 358.848 145.088 352.202 145.088C345.114 145.088 339.438 143.841 335.171 141.345C330.908 138.849 327.834 135.491 325.95 131.279C324.069 127.062 323.125 122.294 323.125 116.97V83.8594H311.495V61.2313H323.125V51.9139L353.032 38.6033V61.2313H372.971V83.8594H353.032V112.644C353.032 114.75 353.561 116.357 354.611 117.469C355.664 118.577 357.133 119.133 359.014 119.133C360.898 119.133 362.809 118.52 364.746 117.302C366.364 116.284 367.767 114.96 368.96 113.323C369.581 119.256 371.233 124.713 373.914 129.698C374.958 131.641 376.134 133.461 377.437 135.155Z" fill="#2A233A"/>
<path fill-rule="evenodd" clip-rule="evenodd" d="M418.496 145.09C409.747 145.09 402.187 143.23 395.816 139.516C389.449 135.799 384.518 130.698 381.029 124.209C377.54 117.72 375.795 110.426 375.795 102.33C375.795 94.1204 377.54 86.7997 381.029 80.3673C384.518 73.9316 389.449 68.8568 395.816 65.1432C402.187 61.4262 409.747 59.5694 418.496 59.5694C427.691 59.5694 435.583 61.4262 442.173 65.1432C448.766 68.8568 453.803 73.9316 457.292 80.3673C460.782 86.7997 462.526 94.1204 462.526 102.33C462.526 110.426 460.782 117.72 457.292 124.209C453.803 130.698 448.766 135.799 442.173 139.516C435.583 143.23 427.691 145.09 418.496 145.09ZM419.161 121.131C421.709 121.131 423.952 120.549 425.89 119.384C427.83 118.219 429.352 116.276 430.459 113.561C431.569 110.842 432.12 107.098 432.12 102.33C432.12 97.5579 431.569 93.8143 430.459 91.0989C429.352 88.3802 427.83 86.4402 425.89 85.2755C423.952 84.1108 421.709 83.5286 419.161 83.5286C416.615 83.5286 414.372 84.1108 412.432 85.2755C410.494 86.4402 408.972 88.3802 407.862 91.0989C406.756 93.8143 406.201 97.5579 406.201 102.33C406.201 107.098 406.756 110.842 407.862 113.561C408.972 116.276 410.494 118.219 412.432 119.384C414.372 120.549 416.615 121.131 419.161 121.131Z" fill="#2A233A"/>
<path fill-rule="evenodd" clip-rule="evenodd" d="M513.921 90.1317C513.655 88.754 513.296 87.616 512.844 86.7175C511.738 84.498 508.803 83.3898 504.038 83.3898C499.276 83.3898 494.458 84.5545 489.583 86.8838C484.711 89.2132 480.558 92.3179 477.122 96.2013L463.83 74.2388C467.266 71.1307 471.14 68.3855 475.46 66.0029C479.78 63.6169 484.489 61.7301 489.583 60.3458C494.68 58.9582 500.051 58.266 505.7 58.266C516.224 58.266 524.531 60.8715 530.622 66.0859C536.717 71.2971 539.761 79.1738 539.761 89.7125V114.503C539.761 116.277 540.066 117.525 540.674 118.247C541.286 118.966 542.309 119.329 543.748 119.329H548.567V142.123H531.619C528.519 142.123 525.555 141.624 522.73 140.626C519.906 139.627 517.609 137.99 515.835 135.717C514.815 134.403 514.087 132.822 513.652 130.975C512.492 132.672 511.07 134.296 509.485 135.784C503.835 141.098 495.581 143.837 487.516 143.953C481.555 144.04 476.504 142.343 472.363 139.128C468.226 135.91 466.156 130.586 466.156 123.155C466.156 116.5 468.179 111.146 472.22 107.099C476.264 103.05 482.827 99.6388 491.909 96.8668L513.921 90.1317ZM513.176 113.492V108.394L499.718 113.172C496.95 114.171 495.096 115.112 494.152 116.001C493.212 116.886 492.74 117.884 492.74 118.996C492.74 120.327 493.272 121.352 494.332 122.074C495.395 122.793 496.983 123.155 499.107 123.155C501.562 123.155 503.683 122.906 505.47 122.407C507.258 121.907 508.737 121.159 509.91 120.16C511.083 119.162 511.947 117.884 512.505 116.334C512.814 115.472 513.04 114.524 513.176 113.492Z" fill="#2A233A"/>
<path fill-rule="evenodd" clip-rule="evenodd" d="M557.845 83.8594H546.215V61.2313H557.845V51.9139L587.753 38.6033V61.2313H607.691V83.8594H587.753V112.644C587.753 114.75 588.281 116.357 589.331 117.469C590.385 118.577 591.853 119.133 593.734 119.133C595.618 119.133 597.529 118.52 599.466 117.302C601.407 116.081 603.039 114.417 604.368 112.311L612.509 134.773C610.738 136.769 607.691 138.985 603.371 141.428C599.051 143.867 593.568 145.088 586.922 145.088C579.834 145.088 574.158 143.841 569.891 141.345C565.628 138.849 562.554 135.491 560.67 131.279C558.789 127.062 557.845 122.294 557.845 116.97V83.8594Z" fill="#2A233A"/>
<g clip-path="url(#clip0_164_2)">
<path d="M88.1137 175.172C136.769 175.172 176.211 135.953 176.211 87.5746C176.211 39.1961 136.769 -0.0224609 88.1137 -0.0224609C39.4588 -0.0224609 0.0161133 39.1961 0.0161133 87.5746C0.0161133 135.953 39.4588 175.172 88.1137 175.172Z" fill="#272038"/>
<mask id="mask0_164_2" style="mask-type:luminance" maskUnits="userSpaceOnUse" x="0" y="-1" width="177" height="177">
<path d="M88.1137 175.172C136.769 175.172 176.211 135.953 176.211 87.5746C176.211 39.1961 136.769 -0.0224609 88.1137 -0.0224609C39.4588 -0.0224609 0.0161133 39.1961 0.0161133 87.5746C0.0161133 135.953 39.4588 175.172 88.1137 175.172Z" fill="white"/>
</mask>
<g mask="url(#mask0_164_2)">
<path d="M65.9063 61.5743C69.8146 63.0316 74.8629 63.0316 78.2827 60.7647C75.6771 58.1739 72.9087 55.4212 70.1403 53.1543C66.7205 50.5636 60.858 46.0298 56.9497 49.9159C53.5299 53.3163 51.5758 65.4604 51.9015 70.1561C52.2272 74.528 54.507 80.0333 59.7181 77.4426C58.4153 75.1757 57.4383 72.7469 57.4383 69.9942C59.3924 71.9372 61.8351 72.9088 64.6035 72.2611C62.8122 70.1561 60.6952 67.5654 60.5324 64.4889C63.3007 66.1081 66.5577 67.0796 69.8146 66.1081C68.349 64.6508 66.7205 63.5173 65.9063 61.5743ZM132.999 96.2255C132.999 96.3874 133.162 96.5493 133.488 96.5493H133.651C137.559 93.7967 135.93 86.0244 130.882 86.1864C128.277 86.1864 128.602 88.1294 129.417 89.7486C130.394 92.0155 131.045 92.9871 132.999 96.2255ZM95.0559 87.9675C87.0764 89.1009 88.0535 101.245 96.3587 100.597C104.827 100.112 103.687 86.834 95.0559 87.9675ZM132.348 122.295C133.651 122.295 134.953 121.809 136.093 121C137.07 120.352 138.047 119.38 138.699 118.247C139.513 117.113 140.165 115.98 140.49 114.846C140.653 114.199 140.816 113.713 140.816 113.065C140.816 112.418 140.327 111.77 139.676 111.284C139.025 110.798 138.21 110.637 137.559 110.475C134.953 109.989 132.348 110.475 129.905 110.96C128.765 111.284 127.625 111.608 126.648 112.256C125.508 112.903 123.717 114.523 124.043 116.951C124.206 118.085 125.671 119.056 126.485 119.866C128.277 121.161 130.231 122.295 132.348 122.295ZM30.08 187.549C26.0088 127.638 25.5203 115.008 44.0848 75.0138C45.3876 80.3572 48.8074 85.2148 54.507 86.0244C51.5758 82.9479 49.1331 79.5476 47.8303 75.4995C45.8761 68.6988 47.5046 59.6312 49.6216 52.9924C53.8556 40.2006 60.3695 39.5529 70.9546 46.8394C75.6771 50.0778 79.9111 54.2878 84.1452 58.1739C83.8195 55.0974 81.8653 52.3447 79.7483 50.0778C79.9111 49.9159 95.8701 47.8109 106.292 51.5351C117.692 55.5832 124.206 61.7362 130.231 71.7753C135.116 80.0333 137.885 85.0529 137.233 95.254C137.07 98.8162 136.093 99.4639 137.722 103.026C139.025 105.779 142.444 110.475 142.607 113.227C142.933 121.161 128.765 128.61 121.926 129.743C113.946 131.201 100.593 127.314 92.2875 125.533C84.308 123.914 76.3285 123.104 69.1632 118.733C59.881 113.065 54.6699 103.35 53.3671 92.6632C51.4129 98.1686 53.0414 105.779 55.4841 111.122C60.6952 122.295 71.9316 128.286 80.2368 137.03C83.4938 140.43 86.2622 144.154 88.8677 148.202C90.1705 140.754 94.4045 133.953 101.244 130.553C93.4274 155.975 111.503 167.309 121.111 187.549H30.08ZM129.742 65.1365C125.508 59.1454 119.971 54.2878 113.132 51.2113C130.882 33.8857 131.045 46.1917 129.742 65.1365Z" fill="white"/>
</g>
</g>
<path d="M673.005 53.0065C673.005 44.1908 674.842 37.684 678.515 33.486C682.293 29.1832 688.013 27.0317 695.674 27.0317C697.458 27.0317 698.98 27.1891 700.239 27.504C701.604 27.7139 702.653 27.9762 703.388 28.2911V38.2087H701.971C695.884 38.2087 691.843 39.4156 689.849 41.8295C687.855 44.2433 686.858 47.9689 686.858 53.0065V142.265H673.005V53.0065ZM661.356 69.6933V58.6737H703.388V69.6933H661.356ZM748.483 144.154C740.507 144.154 733.633 142.423 727.861 138.959C722.194 135.496 717.838 130.511 714.795 124.004C711.751 117.392 710.23 109.574 710.23 100.548C710.23 91.1028 711.751 83.1267 714.795 76.6199C717.943 70.1131 722.404 65.1805 728.176 61.8221C733.948 58.3588 740.717 56.6272 748.483 56.6272C756.459 56.6272 763.281 58.4113 768.948 61.9796C774.72 65.4429 779.128 70.4804 782.172 77.0921C785.215 83.5989 786.737 91.4176 786.737 100.548C786.737 109.889 785.163 117.812 782.014 124.319C778.971 130.826 774.563 135.758 768.791 139.117C763.124 142.475 756.354 144.154 748.483 144.154ZM748.483 132.19C756.249 132.19 762.179 129.461 766.272 124.004C770.47 118.547 772.569 110.728 772.569 100.548C772.569 90.3681 770.47 82.497 766.272 76.9347C762.179 71.3724 756.249 68.5913 748.483 68.5913C740.717 68.5913 734.735 71.3724 730.537 76.9347C726.444 82.392 724.398 90.2632 724.398 100.548C724.398 110.623 726.497 118.442 730.695 124.004C734.892 129.461 740.822 132.19 748.483 132.19ZM804.568 142.265V58.6737H818.421V142.265H804.568ZM818.421 95.5106H812.124C812.754 86.485 814.485 79.1386 817.319 73.4714C820.257 67.6992 823.931 63.4488 828.338 60.7202C832.851 57.9915 837.784 56.6272 843.136 56.6272C844.815 56.6272 846.337 56.8371 847.701 57.2569C849.171 57.5717 850.273 58.044 851.007 58.6737V71.1101C849.853 70.6903 848.541 70.4279 847.072 70.323C845.602 70.1131 844.028 70.0081 842.349 70.0081C838.151 70.0081 834.53 70.6378 831.487 71.8972C828.548 73.0516 826.082 74.7833 824.088 77.0921C822.199 79.401 820.782 82.1297 819.838 85.2781C818.893 88.3216 818.421 91.7324 818.421 95.5106ZM896.068 142.265V35.2177H910.551V142.265H896.068ZM931.016 130.458C939.202 130.458 946.234 128.832 952.111 125.578C957.988 122.22 962.448 117.445 965.492 111.253C968.64 105.061 970.214 97.6096 970.214 88.8988C970.214 80.0832 968.64 72.5794 965.492 66.3874C962.448 60.0905 957.988 55.3153 952.111 52.0619C946.234 48.7036 939.202 47.0244 931.016 47.0244H906.458V35.2177H931.016C942.141 35.2177 951.691 37.3691 959.667 41.672C967.748 45.9749 973.993 52.1144 978.4 60.0905C982.808 68.0666 985.012 77.6694 985.012 88.8988C985.012 100.023 982.808 109.574 978.4 117.55C973.993 125.526 967.748 131.665 959.667 135.968C951.691 140.166 942.141 142.265 931.016 142.265H906.458V130.458H931.016ZM1070.06 92.5196L1062.19 99.9184C1062.19 89.9483 1060.09 82.2346 1055.89 76.7773C1051.8 71.32 1045.98 68.5913 1038.42 68.5913C1030.65 68.5913 1024.72 71.3724 1020.63 76.9347C1016.54 82.392 1014.49 90.2632 1014.49 100.548C1014.49 110.623 1016.64 118.442 1020.95 124.004C1025.25 129.461 1031.34 132.19 1039.21 132.19C1045.08 132.19 1050.02 130.773 1054.01 127.94C1058.1 125.106 1060.88 120.803 1062.35 115.031H1076.83C1074.52 124.791 1070.01 132.085 1063.29 136.913C1056.68 141.74 1048.65 144.154 1039.21 144.154C1031.13 144.154 1024.15 142.423 1018.27 138.959C1012.5 135.496 1008.04 130.511 1004.89 124.004C1001.85 117.392 1000.32 109.574 1000.32 100.548C1000.32 91.1028 1001.85 83.1267 1004.89 76.6199C1008.04 70.1131 1012.45 65.1805 1018.11 61.8221C1023.88 58.3588 1030.65 56.6272 1038.42 56.6272C1046.29 56.6272 1053.01 58.3588 1058.57 61.8221C1064.24 65.2854 1068.59 70.218 1071.64 76.6199C1074.68 82.9168 1076.2 90.5255 1076.2 99.4462V102.909H1006.15V92.5196H1070.06ZM1114.06 142.265L1082.89 58.6737H1097.85L1120.99 123.532L1124.14 134.394H1122.09L1125.08 123.532L1148.22 58.6737H1162.23L1131.06 142.265H1114.06ZM1239.48 92.5196L1231.6 99.9184C1231.6 89.9483 1229.51 82.2346 1225.31 76.7773C1221.22 71.32 1215.39 68.5913 1207.83 68.5913C1200.07 68.5913 1194.14 71.3724 1190.05 76.9347C1185.95 82.392 1183.91 90.2632 1183.91 100.548C1183.91 110.623 1186.06 118.442 1190.36 124.004C1194.66 129.461 1200.75 132.19 1208.62 132.19C1214.5 132.19 1219.43 130.773 1223.42 127.94C1227.51 125.106 1230.29 120.803 1231.76 115.031H1246.25C1243.94 124.791 1239.42 132.085 1232.71 136.913C1226.1 141.74 1218.07 144.154 1208.62 144.154C1200.54 144.154 1193.56 142.423 1187.68 138.959C1181.91 135.496 1177.45 130.511 1174.3 124.004C1171.26 117.392 1169.74 109.574 1169.74 100.548C1169.74 91.1028 1171.26 83.1267 1174.3 76.6199C1177.45 70.1131 1181.86 65.1805 1187.53 61.8221C1193.3 58.3588 1200.07 56.6272 1207.83 56.6272C1215.71 56.6272 1222.42 58.3588 1227.98 61.8221C1233.65 65.2854 1238.01 70.218 1241.05 76.6199C1244.09 82.9168 1245.62 90.5255 1245.62 99.4462V102.909H1175.56V92.5196H1239.48ZM1264.08 142.265V28.9208H1277.93V142.265H1264.08ZM1333.9 144.154C1325.92 144.154 1319.05 142.423 1313.28 138.959C1307.61 135.496 1303.25 130.511 1300.21 124.004C1297.17 117.392 1295.65 109.574 1295.65 100.548C1295.65 91.1028 1297.17 83.1267 1300.21 76.6199C1303.36 70.1131 1307.82 65.1805 1313.59 61.8221C1319.36 58.3588 1326.13 56.6272 1333.9 56.6272C1341.88 56.6272 1348.7 58.4113 1354.36 61.9796C1360.14 65.4429 1364.54 70.4804 1367.59 77.0921C1370.63 83.5989 1372.15 91.4176 1372.15 100.548C1372.15 109.889 1370.58 117.812 1367.43 124.319C1364.39 130.826 1359.98 135.758 1354.21 139.117C1348.54 142.475 1341.77 144.154 1333.9 144.154ZM1333.9 132.19C1341.67 132.19 1347.59 129.461 1351.69 124.004C1355.89 118.547 1357.98 110.728 1357.98 100.548C1357.98 90.3681 1355.89 82.497 1351.69 76.9347C1347.59 71.3724 1341.67 68.5913 1333.9 68.5913C1326.13 68.5913 1320.15 71.3724 1315.95 76.9347C1311.86 82.392 1309.81 90.2632 1309.81 100.548C1309.81 110.623 1311.91 118.442 1316.11 124.004C1320.31 129.461 1326.24 132.19 1333.9 132.19ZM1427.45 56.6272C1434.9 56.6272 1441.25 58.3588 1446.5 61.8221C1451.85 65.2854 1455.94 70.2705 1458.78 76.7773C1461.61 83.2841 1463.03 91.1028 1463.03 100.233C1463.03 114.401 1459.83 125.263 1453.42 132.82C1447.02 140.376 1438.36 144.154 1427.45 144.154C1417.79 144.154 1410.08 140.429 1404.31 132.977C1398.64 125.421 1395.81 114.506 1395.81 100.233C1395.81 91.4176 1397.07 83.7564 1399.59 77.2496C1402.21 70.7428 1405.88 65.7052 1410.61 62.137C1415.43 58.4638 1421.05 56.6272 1427.45 56.6272ZM1426.51 68.5913C1419.16 68.5913 1413.54 71.32 1409.66 76.7773C1405.88 82.1297 1403.99 89.9483 1403.99 100.233C1403.99 110.413 1405.94 118.284 1409.82 123.847C1413.81 129.409 1419.37 132.19 1426.51 132.19C1433.75 132.19 1439.26 129.461 1443.03 124.004C1446.92 118.442 1448.86 110.518 1448.86 100.233C1448.86 90.1582 1446.92 82.392 1443.03 76.9347C1439.15 71.3724 1433.64 68.5913 1426.51 68.5913ZM1403.99 176.898H1390.14V58.6737H1403.99V176.898ZM1546.33 92.5196L1538.46 99.9184C1538.46 89.9483 1536.36 82.2346 1532.16 76.7773C1528.07 71.32 1522.24 68.5913 1514.69 68.5913C1506.92 68.5913 1500.99 71.3724 1496.9 76.9347C1492.8 82.392 1490.76 90.2632 1490.76 100.548C1490.76 110.623 1492.91 118.442 1497.21 124.004C1501.51 129.461 1507.6 132.19 1515.47 132.19C1521.35 132.19 1526.28 130.773 1530.27 127.94C1534.36 125.106 1537.14 120.803 1538.61 115.031H1553.1C1550.79 124.791 1546.27 132.085 1539.56 136.913C1532.95 141.74 1524.92 144.154 1515.47 144.154C1507.39 144.154 1500.41 142.423 1494.54 138.959C1488.76 135.496 1484.3 130.511 1481.15 124.004C1478.11 117.392 1476.59 109.574 1476.59 100.548C1476.59 91.1028 1478.11 83.1267 1481.15 76.6199C1484.3 70.1131 1488.71 65.1805 1494.38 61.8221C1500.15 58.3588 1506.92 56.6272 1514.69 56.6272C1522.56 56.6272 1529.27 58.3588 1534.84 61.8221C1540.5 65.2854 1544.86 70.218 1547.9 76.6199C1550.95 82.9168 1552.47 90.5255 1552.47 99.4462V102.909H1482.41V92.5196H1546.33ZM1570.93 142.265V58.6737H1584.78V142.265H1570.93ZM1584.78 95.5106H1578.48C1579.11 86.485 1580.84 79.1386 1583.68 73.4714C1586.62 67.6992 1590.29 63.4488 1594.7 60.7202C1599.21 57.9915 1604.14 56.6272 1609.5 56.6272C1611.17 56.6272 1612.7 56.8371 1614.06 57.2569C1615.53 57.5717 1616.63 58.044 1617.37 58.6737V71.1101C1616.21 70.6903 1614.9 70.4279 1613.43 70.323C1611.96 70.1131 1610.39 70.0081 1608.71 70.0081C1604.51 70.0081 1600.89 70.6378 1597.85 71.8972C1594.91 73.0516 1592.44 74.7833 1590.45 77.0921C1588.56 79.401 1587.14 82.1297 1586.2 85.2781C1585.25 88.3216 1584.78 91.7324 1584.78 95.5106ZM1639.89 80.0832C1639.89 83.4415 1640.83 86.0128 1642.72 87.7969C1644.71 89.581 1647.34 90.9453 1650.59 91.8899C1653.84 92.8344 1657.41 93.6215 1661.3 94.2512C1665.18 94.776 1669.01 95.4581 1672.79 96.2977C1676.67 97.1373 1680.24 98.3967 1683.49 100.076C1686.75 101.65 1689.32 103.906 1691.21 106.845C1693.2 109.784 1694.2 113.719 1694.2 118.652C1694.2 123.794 1692.78 128.307 1689.95 132.19C1687.11 135.968 1683.18 138.907 1678.14 141.006C1673.1 143.105 1667.28 144.154 1660.67 144.154C1650.8 144.154 1642.56 141.793 1635.95 137.07C1629.44 132.243 1625.4 124.896 1623.83 115.031H1637.68C1638.63 120.803 1641.14 125.263 1645.24 128.412C1649.44 131.56 1654.74 133.135 1661.14 133.135C1667.43 133.135 1672.21 131.875 1675.46 129.356C1678.72 126.733 1680.34 123.479 1680.34 119.596C1680.34 116.343 1679.35 113.824 1677.35 112.04C1675.46 110.256 1672.89 108.944 1669.64 108.104C1666.49 107.16 1662.97 106.373 1659.09 105.743C1655.31 105.113 1651.53 104.379 1647.76 103.539C1643.98 102.7 1640.46 101.493 1637.21 99.9184C1634.06 98.2393 1631.49 95.9304 1629.5 92.9918C1627.61 89.9483 1626.66 85.9603 1626.66 81.0277C1626.66 76.7248 1627.76 72.7368 1629.97 69.0636C1632.17 65.3904 1635.53 62.3994 1640.04 60.0905C1644.56 57.7816 1650.22 56.6272 1657.04 56.6272C1663.13 56.6272 1668.54 57.6242 1673.26 59.6182C1678.09 61.6122 1682.07 64.7607 1685.22 69.0636C1688.37 73.3665 1690.37 78.9812 1691.21 85.9078H1677.35C1676.3 79.401 1673.99 74.7833 1670.43 72.0546C1666.86 69.3259 1662.13 67.9616 1656.26 67.9616C1651.12 67.9616 1647.07 69.1161 1644.14 71.4249C1641.3 73.7338 1639.89 76.6199 1639.89 80.0832Z" fill="#2A233A"/>
<defs>
<clipPath id="clip0_164_2">
<rect width="176" height="175" fill="white"/>
</clipPath>
</defs>
</svg>
